<mxfile host="app.diagrams.net" modified="2023-10-15T17:17:36.936Z" agent="Mozilla/5.0 (Windows NT 10.0; Win64; x64) AppleWebKit/537.36 (KHTML, like Gecko) Chrome/117.0.0.0 Safari/537.36" etag="gjIM4c7fLqNhD6CoxF7x" version="22.0.4" type="google">
  <diagram name="Page-1" id="03018318-947c-dd8e-b7a3-06fadd420f32">
    <mxGraphModel grid="1" page="1" gridSize="10" guides="1" tooltips="1" connect="1" arrows="1" fold="1" pageScale="1" pageWidth="1100" pageHeight="850" background="none" math="0" shadow="0">
      <root>
        <mxCell id="0" />
        <mxCell id="1" parent="0" />
        <mxCell id="qYC7P0EI7lyvb2j1Zvjj-5" value="" style="group;movable=1;resizable=1;rotatable=1;deletable=1;editable=1;locked=0;connectable=1;" connectable="0" vertex="1" parent="1">
          <mxGeometry x="30" y="224" width="1050" height="860" as="geometry" />
        </mxCell>
        <mxCell id="677b7b8949515195-1" value="" style="whiteSpace=wrap;html=1;rounded=0;shadow=0;labelBackgroundColor=none;strokeColor=#000000;strokeWidth=1;fillColor=none;fontFamily=Verdana;fontSize=12;fontColor=#000000;align=center;comic=1;" vertex="1" parent="qYC7P0EI7lyvb2j1Zvjj-5">
          <mxGeometry x="-10" y="-200" width="1060" height="1060" as="geometry" />
        </mxCell>
        <mxCell id="BP2sfN2S9ao4BCfIzF7K-1" value="&lt;h1&gt;&lt;span style=&quot;font-weight: normal;&quot;&gt;Select club:&lt;/span&gt;&lt;/h1&gt;" style="text;html=1;strokeColor=none;fillColor=none;spacing=5;spacingTop=-20;whiteSpace=wrap;overflow=hidden;rounded=0;" vertex="1" parent="qYC7P0EI7lyvb2j1Zvjj-5">
          <mxGeometry x="400" y="-11" width="290" height="50" as="geometry" />
        </mxCell>
        <mxCell id="BP2sfN2S9ao4BCfIzF7K-10" value="" style="strokeWidth=1;shadow=0;dashed=0;align=center;html=1;shape=mxgraph.mockup.forms.rrect;rSize=5;strokeColor=#999999;fillColor=#ffffff;" vertex="1" parent="qYC7P0EI7lyvb2j1Zvjj-5">
          <mxGeometry x="37" y="-14" width="304" height="299" as="geometry" />
        </mxCell>
        <mxCell id="BP2sfN2S9ao4BCfIzF7K-11" value="July 2024" style="strokeWidth=1;shadow=0;dashed=0;align=center;html=1;shape=mxgraph.mockup.forms.anchor;fontColor=#999999;" vertex="1" parent="BP2sfN2S9ao4BCfIzF7K-10">
          <mxGeometry x="57.00000000000001" y="13.668571428571427" width="190" height="34.17142857142857" as="geometry" />
        </mxCell>
        <mxCell id="BP2sfN2S9ao4BCfIzF7K-12" value="&lt;" style="strokeWidth=1;shadow=0;dashed=0;align=center;html=1;shape=mxgraph.mockup.forms.rrect;rSize=4;strokeColor=#999999;fontColor=#008cff;fontSize=19;fontStyle=1;" vertex="1" parent="BP2sfN2S9ao4BCfIzF7K-10">
          <mxGeometry x="15.200000000000001" y="13.668571428571427" width="47.5" height="34.17142857142857" as="geometry" />
        </mxCell>
        <mxCell id="BP2sfN2S9ao4BCfIzF7K-13" value="&gt;" style="strokeWidth=1;shadow=0;dashed=0;align=center;html=1;shape=mxgraph.mockup.forms.rrect;rSize=4;strokeColor=#999999;fontColor=#008cff;fontSize=19;fontStyle=1;" vertex="1" parent="BP2sfN2S9ao4BCfIzF7K-10">
          <mxGeometry x="241.3" y="13.668571428571427" width="47.5" height="34.17142857142857" as="geometry" />
        </mxCell>
        <mxCell id="BP2sfN2S9ao4BCfIzF7K-14" value="Mo" style="strokeWidth=1;shadow=0;dashed=0;align=center;html=1;shape=mxgraph.mockup.forms.anchor;fontColor=#999999;" vertex="1" parent="BP2sfN2S9ao4BCfIzF7K-10">
          <mxGeometry x="19" y="47.839999999999996" width="38" height="34.17142857142857" as="geometry" />
        </mxCell>
        <mxCell id="BP2sfN2S9ao4BCfIzF7K-15" value="Tu" style="strokeWidth=1;shadow=0;dashed=0;align=center;html=1;shape=mxgraph.mockup.forms.anchor;fontColor=#999999;" vertex="1" parent="BP2sfN2S9ao4BCfIzF7K-10">
          <mxGeometry x="57.00000000000001" y="47.839999999999996" width="38" height="34.17142857142857" as="geometry" />
        </mxCell>
        <mxCell id="BP2sfN2S9ao4BCfIzF7K-16" value="We" style="strokeWidth=1;shadow=0;dashed=0;align=center;html=1;shape=mxgraph.mockup.forms.anchor;fontColor=#999999;" vertex="1" parent="BP2sfN2S9ao4BCfIzF7K-10">
          <mxGeometry x="95" y="47.839999999999996" width="38" height="34.17142857142857" as="geometry" />
        </mxCell>
        <mxCell id="BP2sfN2S9ao4BCfIzF7K-17" value="Th" style="strokeWidth=1;shadow=0;dashed=0;align=center;html=1;shape=mxgraph.mockup.forms.anchor;fontColor=#999999;" vertex="1" parent="BP2sfN2S9ao4BCfIzF7K-10">
          <mxGeometry x="133" y="47.839999999999996" width="38" height="34.17142857142857" as="geometry" />
        </mxCell>
        <mxCell id="BP2sfN2S9ao4BCfIzF7K-18" value="Fr" style="strokeWidth=1;shadow=0;dashed=0;align=center;html=1;shape=mxgraph.mockup.forms.anchor;fontColor=#999999;" vertex="1" parent="BP2sfN2S9ao4BCfIzF7K-10">
          <mxGeometry x="171" y="47.839999999999996" width="38" height="34.17142857142857" as="geometry" />
        </mxCell>
        <mxCell id="BP2sfN2S9ao4BCfIzF7K-19" value="Sa" style="strokeWidth=1;shadow=0;dashed=0;align=center;html=1;shape=mxgraph.mockup.forms.anchor;fontColor=#999999;" vertex="1" parent="BP2sfN2S9ao4BCfIzF7K-10">
          <mxGeometry x="209" y="47.839999999999996" width="38" height="34.17142857142857" as="geometry" />
        </mxCell>
        <mxCell id="BP2sfN2S9ao4BCfIzF7K-20" value="Su" style="strokeWidth=1;shadow=0;dashed=0;align=center;html=1;shape=mxgraph.mockup.forms.anchor;fontColor=#999999;" vertex="1" parent="BP2sfN2S9ao4BCfIzF7K-10">
          <mxGeometry x="247.00000000000003" y="47.839999999999996" width="38" height="34.17142857142857" as="geometry" />
        </mxCell>
        <mxCell id="BP2sfN2S9ao4BCfIzF7K-21" value="1" style="strokeWidth=1;shadow=0;dashed=0;align=center;html=1;shape=mxgraph.mockup.forms.rrect;rSize=0;strokeColor=#999999;fontColor=#999999;" vertex="1" parent="BP2sfN2S9ao4BCfIzF7K-10">
          <mxGeometry x="19" y="82.01142857142857" width="38" height="34.17142857142857" as="geometry" />
        </mxCell>
        <mxCell id="BP2sfN2S9ao4BCfIzF7K-22" value="2" style="strokeWidth=1;shadow=0;dashed=0;align=center;html=1;shape=mxgraph.mockup.forms.rrect;rSize=0;strokeColor=#999999;fontColor=#999999;" vertex="1" parent="BP2sfN2S9ao4BCfIzF7K-10">
          <mxGeometry x="57.00000000000001" y="82.01142857142857" width="38" height="34.17142857142857" as="geometry" />
        </mxCell>
        <mxCell id="BP2sfN2S9ao4BCfIzF7K-23" value="3" style="strokeWidth=1;shadow=0;dashed=0;align=center;html=1;shape=mxgraph.mockup.forms.rrect;rSize=0;strokeColor=#999999;fontColor=#999999;" vertex="1" parent="BP2sfN2S9ao4BCfIzF7K-10">
          <mxGeometry x="95" y="82.01142857142857" width="38" height="34.17142857142857" as="geometry" />
        </mxCell>
        <mxCell id="BP2sfN2S9ao4BCfIzF7K-24" value="4" style="strokeWidth=1;shadow=0;dashed=0;align=center;html=1;shape=mxgraph.mockup.forms.rrect;rSize=0;strokeColor=#999999;fontColor=#999999;" vertex="1" parent="BP2sfN2S9ao4BCfIzF7K-10">
          <mxGeometry x="133" y="82.01142857142857" width="38" height="34.17142857142857" as="geometry" />
        </mxCell>
        <mxCell id="BP2sfN2S9ao4BCfIzF7K-25" value="5" style="strokeWidth=1;shadow=0;dashed=0;align=center;html=1;shape=mxgraph.mockup.forms.rrect;rSize=0;strokeColor=#999999;fontColor=#999999;" vertex="1" parent="BP2sfN2S9ao4BCfIzF7K-10">
          <mxGeometry x="171" y="82.01142857142857" width="38" height="34.17142857142857" as="geometry" />
        </mxCell>
        <mxCell id="BP2sfN2S9ao4BCfIzF7K-26" value="6" style="strokeWidth=1;shadow=0;dashed=0;align=center;html=1;shape=mxgraph.mockup.forms.rrect;rSize=0;strokeColor=#999999;fontColor=#999999;" vertex="1" parent="BP2sfN2S9ao4BCfIzF7K-10">
          <mxGeometry x="209" y="82.01142857142857" width="38" height="34.17142857142857" as="geometry" />
        </mxCell>
        <mxCell id="BP2sfN2S9ao4BCfIzF7K-27" value="7" style="strokeWidth=1;shadow=0;dashed=0;align=center;html=1;shape=mxgraph.mockup.forms.rrect;rSize=0;strokeColor=#999999;fontColor=#999999;" vertex="1" parent="BP2sfN2S9ao4BCfIzF7K-10">
          <mxGeometry x="247.00000000000003" y="82.01142857142857" width="38" height="34.17142857142857" as="geometry" />
        </mxCell>
        <mxCell id="BP2sfN2S9ao4BCfIzF7K-28" value="8" style="strokeWidth=1;shadow=0;dashed=0;align=center;html=1;shape=mxgraph.mockup.forms.rrect;rSize=0;strokeColor=#999999;fontColor=#999999;" vertex="1" parent="BP2sfN2S9ao4BCfIzF7K-10">
          <mxGeometry x="19" y="116.18285714285713" width="38" height="34.17142857142857" as="geometry" />
        </mxCell>
        <mxCell id="BP2sfN2S9ao4BCfIzF7K-29" value="9" style="strokeWidth=1;shadow=0;dashed=0;align=center;html=1;shape=mxgraph.mockup.forms.rrect;rSize=0;strokeColor=#999999;fontColor=#999999;" vertex="1" parent="BP2sfN2S9ao4BCfIzF7K-10">
          <mxGeometry x="57.00000000000001" y="116.18285714285713" width="38" height="34.17142857142857" as="geometry" />
        </mxCell>
        <mxCell id="BP2sfN2S9ao4BCfIzF7K-30" value="10" style="strokeWidth=1;shadow=0;dashed=0;align=center;html=1;shape=mxgraph.mockup.forms.rrect;rSize=0;strokeColor=#999999;fontColor=#999999;" vertex="1" parent="BP2sfN2S9ao4BCfIzF7K-10">
          <mxGeometry x="95" y="116.18285714285713" width="38" height="34.17142857142857" as="geometry" />
        </mxCell>
        <mxCell id="BP2sfN2S9ao4BCfIzF7K-31" value="11" style="strokeWidth=1;shadow=0;dashed=0;align=center;html=1;shape=mxgraph.mockup.forms.rrect;rSize=0;strokeColor=#999999;fontColor=#999999;" vertex="1" parent="BP2sfN2S9ao4BCfIzF7K-10">
          <mxGeometry x="133" y="116.18285714285713" width="38" height="34.17142857142857" as="geometry" />
        </mxCell>
        <mxCell id="BP2sfN2S9ao4BCfIzF7K-32" value="12" style="strokeWidth=1;shadow=0;dashed=0;align=center;html=1;shape=mxgraph.mockup.forms.rrect;rSize=0;strokeColor=#999999;fontColor=#999999;" vertex="1" parent="BP2sfN2S9ao4BCfIzF7K-10">
          <mxGeometry x="171" y="116.18285714285713" width="38" height="34.17142857142857" as="geometry" />
        </mxCell>
        <mxCell id="BP2sfN2S9ao4BCfIzF7K-33" value="13" style="strokeWidth=1;shadow=0;dashed=0;align=center;html=1;shape=mxgraph.mockup.forms.rrect;rSize=0;strokeColor=#999999;fontColor=#999999;" vertex="1" parent="BP2sfN2S9ao4BCfIzF7K-10">
          <mxGeometry x="209" y="116.18285714285713" width="38" height="34.17142857142857" as="geometry" />
        </mxCell>
        <mxCell id="BP2sfN2S9ao4BCfIzF7K-34" value="14" style="strokeWidth=1;shadow=0;dashed=0;align=center;html=1;shape=mxgraph.mockup.forms.rrect;rSize=0;strokeColor=#999999;fontColor=#999999;" vertex="1" parent="BP2sfN2S9ao4BCfIzF7K-10">
          <mxGeometry x="247.00000000000003" y="116.18285714285713" width="38" height="34.17142857142857" as="geometry" />
        </mxCell>
        <mxCell id="BP2sfN2S9ao4BCfIzF7K-35" value="15" style="strokeWidth=1;shadow=0;dashed=0;align=center;html=1;shape=mxgraph.mockup.forms.rrect;rSize=0;strokeColor=#999999;fontColor=#999999;" vertex="1" parent="BP2sfN2S9ao4BCfIzF7K-10">
          <mxGeometry x="19" y="150.3542857142857" width="38" height="34.17142857142857" as="geometry" />
        </mxCell>
        <mxCell id="BP2sfN2S9ao4BCfIzF7K-36" value="16" style="strokeWidth=1;shadow=0;dashed=0;align=center;html=1;shape=mxgraph.mockup.forms.rrect;rSize=0;strokeColor=#999999;fontColor=#999999;" vertex="1" parent="BP2sfN2S9ao4BCfIzF7K-10">
          <mxGeometry x="57.00000000000001" y="150.3542857142857" width="38" height="34.17142857142857" as="geometry" />
        </mxCell>
        <mxCell id="BP2sfN2S9ao4BCfIzF7K-37" value="17" style="strokeWidth=1;shadow=0;dashed=0;align=center;html=1;shape=mxgraph.mockup.forms.rrect;rSize=0;strokeColor=#999999;fontColor=#999999;" vertex="1" parent="BP2sfN2S9ao4BCfIzF7K-10">
          <mxGeometry x="95" y="150.3542857142857" width="38" height="34.17142857142857" as="geometry" />
        </mxCell>
        <mxCell id="BP2sfN2S9ao4BCfIzF7K-38" value="18" style="strokeWidth=1;shadow=0;dashed=0;align=center;html=1;shape=mxgraph.mockup.forms.rrect;rSize=0;strokeColor=#999999;fontColor=#999999;" vertex="1" parent="BP2sfN2S9ao4BCfIzF7K-10">
          <mxGeometry x="133" y="150.3542857142857" width="38" height="34.17142857142857" as="geometry" />
        </mxCell>
        <mxCell id="BP2sfN2S9ao4BCfIzF7K-39" value="19" style="strokeWidth=1;shadow=0;dashed=0;align=center;html=1;shape=mxgraph.mockup.forms.rrect;rSize=0;strokeColor=#999999;fontColor=#999999;" vertex="1" parent="BP2sfN2S9ao4BCfIzF7K-10">
          <mxGeometry x="171" y="150.3542857142857" width="38" height="34.17142857142857" as="geometry" />
        </mxCell>
        <mxCell id="BP2sfN2S9ao4BCfIzF7K-40" value="20" style="strokeWidth=1;shadow=0;dashed=0;align=center;html=1;shape=mxgraph.mockup.forms.rrect;rSize=0;strokeColor=#999999;fontColor=#999999;" vertex="1" parent="BP2sfN2S9ao4BCfIzF7K-10">
          <mxGeometry x="209" y="150.3542857142857" width="38" height="34.17142857142857" as="geometry" />
        </mxCell>
        <mxCell id="BP2sfN2S9ao4BCfIzF7K-41" value="21" style="strokeWidth=1;shadow=0;dashed=0;align=center;html=1;shape=mxgraph.mockup.forms.rrect;rSize=0;strokeColor=#999999;fontColor=#999999;" vertex="1" parent="BP2sfN2S9ao4BCfIzF7K-10">
          <mxGeometry x="247.00000000000003" y="150.3542857142857" width="38" height="34.17142857142857" as="geometry" />
        </mxCell>
        <mxCell id="BP2sfN2S9ao4BCfIzF7K-42" value="22" style="strokeWidth=1;shadow=0;dashed=0;align=center;html=1;shape=mxgraph.mockup.forms.rrect;rSize=0;strokeColor=#999999;fontColor=#999999;" vertex="1" parent="BP2sfN2S9ao4BCfIzF7K-10">
          <mxGeometry x="19" y="184.5257142857143" width="38" height="34.17142857142857" as="geometry" />
        </mxCell>
        <mxCell id="BP2sfN2S9ao4BCfIzF7K-43" value="23" style="strokeWidth=1;shadow=0;dashed=0;align=center;html=1;shape=mxgraph.mockup.forms.rrect;rSize=0;strokeColor=#999999;fontColor=#999999;" vertex="1" parent="BP2sfN2S9ao4BCfIzF7K-10">
          <mxGeometry x="57.00000000000001" y="184.5257142857143" width="38" height="34.17142857142857" as="geometry" />
        </mxCell>
        <mxCell id="BP2sfN2S9ao4BCfIzF7K-44" value="25" style="strokeWidth=1;shadow=0;dashed=0;align=center;html=1;shape=mxgraph.mockup.forms.rrect;rSize=0;strokeColor=#999999;fontColor=#999999;" vertex="1" parent="BP2sfN2S9ao4BCfIzF7K-10">
          <mxGeometry x="133" y="184.5257142857143" width="38" height="34.17142857142857" as="geometry" />
        </mxCell>
        <mxCell id="BP2sfN2S9ao4BCfIzF7K-45" value="26" style="strokeWidth=1;shadow=0;dashed=0;align=center;html=1;shape=mxgraph.mockup.forms.rrect;rSize=0;strokeColor=#999999;fontColor=#999999;" vertex="1" parent="BP2sfN2S9ao4BCfIzF7K-10">
          <mxGeometry x="171" y="184.5257142857143" width="38" height="34.17142857142857" as="geometry" />
        </mxCell>
        <mxCell id="BP2sfN2S9ao4BCfIzF7K-46" value="27" style="strokeWidth=1;shadow=0;dashed=0;align=center;html=1;shape=mxgraph.mockup.forms.rrect;rSize=0;strokeColor=#999999;fontColor=#999999;" vertex="1" parent="BP2sfN2S9ao4BCfIzF7K-10">
          <mxGeometry x="209" y="184.5257142857143" width="38" height="34.17142857142857" as="geometry" />
        </mxCell>
        <mxCell id="BP2sfN2S9ao4BCfIzF7K-47" value="28" style="strokeWidth=1;shadow=0;dashed=0;align=center;html=1;shape=mxgraph.mockup.forms.rrect;rSize=0;strokeColor=#999999;fontColor=#999999;" vertex="1" parent="BP2sfN2S9ao4BCfIzF7K-10">
          <mxGeometry x="247.00000000000003" y="184.5257142857143" width="38" height="34.17142857142857" as="geometry" />
        </mxCell>
        <mxCell id="BP2sfN2S9ao4BCfIzF7K-48" value="29" style="strokeWidth=1;shadow=0;dashed=0;align=center;html=1;shape=mxgraph.mockup.forms.rrect;rSize=0;strokeColor=#999999;fontColor=#999999;" vertex="1" parent="BP2sfN2S9ao4BCfIzF7K-10">
          <mxGeometry x="19" y="218.69714285714284" width="38" height="34.17142857142857" as="geometry" />
        </mxCell>
        <mxCell id="BP2sfN2S9ao4BCfIzF7K-49" value="30" style="strokeWidth=1;shadow=0;dashed=0;align=center;html=1;shape=mxgraph.mockup.forms.rrect;rSize=0;strokeColor=#999999;fontColor=#999999;" vertex="1" parent="BP2sfN2S9ao4BCfIzF7K-10">
          <mxGeometry x="57.00000000000001" y="218.69714285714284" width="38" height="34.17142857142857" as="geometry" />
        </mxCell>
        <mxCell id="BP2sfN2S9ao4BCfIzF7K-50" value="31" style="strokeWidth=1;shadow=0;dashed=0;align=center;html=1;shape=mxgraph.mockup.forms.rrect;rSize=0;strokeColor=#999999;fontColor=#999999;" vertex="1" parent="BP2sfN2S9ao4BCfIzF7K-10">
          <mxGeometry x="95" y="218.69714285714284" width="38" height="34.17142857142857" as="geometry" />
        </mxCell>
        <mxCell id="BP2sfN2S9ao4BCfIzF7K-51" value="1" style="strokeWidth=1;shadow=0;dashed=0;align=center;html=1;shape=mxgraph.mockup.forms.rrect;rSize=0;strokeColor=#999999;fontColor=#999999;fillColor=#ddeeff;" vertex="1" parent="BP2sfN2S9ao4BCfIzF7K-10">
          <mxGeometry x="133" y="218.69714285714284" width="38" height="34.17142857142857" as="geometry" />
        </mxCell>
        <mxCell id="BP2sfN2S9ao4BCfIzF7K-52" value="2" style="strokeWidth=1;shadow=0;dashed=0;align=center;html=1;shape=mxgraph.mockup.forms.rrect;rSize=0;strokeColor=#999999;fontColor=#999999;fillColor=#ddeeff;" vertex="1" parent="BP2sfN2S9ao4BCfIzF7K-10">
          <mxGeometry x="171" y="218.69714285714284" width="38" height="34.17142857142857" as="geometry" />
        </mxCell>
        <mxCell id="BP2sfN2S9ao4BCfIzF7K-53" value="3" style="strokeWidth=1;shadow=0;dashed=0;align=center;html=1;shape=mxgraph.mockup.forms.rrect;rSize=0;strokeColor=#999999;fontColor=#999999;fillColor=#ddeeff;" vertex="1" parent="BP2sfN2S9ao4BCfIzF7K-10">
          <mxGeometry x="209" y="218.69714285714284" width="38" height="34.17142857142857" as="geometry" />
        </mxCell>
        <mxCell id="BP2sfN2S9ao4BCfIzF7K-54" value="4" style="strokeWidth=1;shadow=0;dashed=0;align=center;html=1;shape=mxgraph.mockup.forms.rrect;rSize=0;strokeColor=#999999;fontColor=#999999;fillColor=#ddeeff;" vertex="1" parent="BP2sfN2S9ao4BCfIzF7K-10">
          <mxGeometry x="247.00000000000003" y="218.69714285714284" width="38" height="34.17142857142857" as="geometry" />
        </mxCell>
        <mxCell id="BP2sfN2S9ao4BCfIzF7K-55" value="5" style="strokeWidth=1;shadow=0;dashed=0;align=center;html=1;shape=mxgraph.mockup.forms.rrect;rSize=0;strokeColor=#999999;fontColor=#999999;fillColor=#ddeeff;" vertex="1" parent="BP2sfN2S9ao4BCfIzF7K-10">
          <mxGeometry x="19" y="252.8685714285714" width="38" height="34.17142857142857" as="geometry" />
        </mxCell>
        <mxCell id="BP2sfN2S9ao4BCfIzF7K-56" value="6" style="strokeWidth=1;shadow=0;dashed=0;align=center;html=1;shape=mxgraph.mockup.forms.rrect;rSize=0;strokeColor=#999999;fontColor=#999999;fillColor=#ddeeff;" vertex="1" parent="BP2sfN2S9ao4BCfIzF7K-10">
          <mxGeometry x="57.00000000000001" y="252.8685714285714" width="38" height="34.17142857142857" as="geometry" />
        </mxCell>
        <mxCell id="BP2sfN2S9ao4BCfIzF7K-57" value="7" style="strokeWidth=1;shadow=0;dashed=0;align=center;html=1;shape=mxgraph.mockup.forms.rrect;rSize=0;strokeColor=#999999;fontColor=#999999;fillColor=#ddeeff;" vertex="1" parent="BP2sfN2S9ao4BCfIzF7K-10">
          <mxGeometry x="95" y="252.8685714285714" width="38" height="34.17142857142857" as="geometry" />
        </mxCell>
        <mxCell id="BP2sfN2S9ao4BCfIzF7K-58" value="8" style="strokeWidth=1;shadow=0;dashed=0;align=center;html=1;shape=mxgraph.mockup.forms.rrect;rSize=0;strokeColor=#999999;fontColor=#999999;fillColor=#ddeeff;" vertex="1" parent="BP2sfN2S9ao4BCfIzF7K-10">
          <mxGeometry x="133" y="252.8685714285714" width="38" height="34.17142857142857" as="geometry" />
        </mxCell>
        <mxCell id="BP2sfN2S9ao4BCfIzF7K-59" value="9" style="strokeWidth=1;shadow=0;dashed=0;align=center;html=1;shape=mxgraph.mockup.forms.rrect;rSize=0;strokeColor=#999999;fontColor=#999999;fillColor=#ddeeff;" vertex="1" parent="BP2sfN2S9ao4BCfIzF7K-10">
          <mxGeometry x="171" y="252.8685714285714" width="38" height="34.17142857142857" as="geometry" />
        </mxCell>
        <mxCell id="BP2sfN2S9ao4BCfIzF7K-60" value="10" style="strokeWidth=1;shadow=0;dashed=0;align=center;html=1;shape=mxgraph.mockup.forms.rrect;rSize=0;strokeColor=#999999;fontColor=#999999;fillColor=#ddeeff;" vertex="1" parent="BP2sfN2S9ao4BCfIzF7K-10">
          <mxGeometry x="209" y="252.8685714285714" width="38" height="34.17142857142857" as="geometry" />
        </mxCell>
        <mxCell id="BP2sfN2S9ao4BCfIzF7K-61" value="11" style="strokeWidth=1;shadow=0;dashed=0;align=center;html=1;shape=mxgraph.mockup.forms.rrect;rSize=0;strokeColor=#999999;fontColor=#999999;fillColor=#ddeeff;" vertex="1" parent="BP2sfN2S9ao4BCfIzF7K-10">
          <mxGeometry x="247.00000000000003" y="252.8685714285714" width="38" height="34.17142857142857" as="geometry" />
        </mxCell>
        <mxCell id="BP2sfN2S9ao4BCfIzF7K-62" value="24" style="strokeWidth=1;shadow=0;dashed=0;align=center;html=1;shape=mxgraph.mockup.forms.rrect;rSize=0;strokeColor=#ff0000;fontColor=#ffffff;strokeWidth=2;fillColor=#008cff;" vertex="1" parent="BP2sfN2S9ao4BCfIzF7K-10">
          <mxGeometry x="95" y="184.5257142857143" width="38" height="34.17142857142857" as="geometry" />
        </mxCell>
        <mxCell id="5WyYVaLcLOMr_epY7U-2-2" value="&lt;h1&gt;&lt;font style=&quot;font-size: 30px;&quot;&gt;Create a game&lt;/font&gt;&lt;/h1&gt;" style="text;html=1;strokeColor=none;fillColor=none;spacing=5;spacingTop=-20;whiteSpace=wrap;overflow=hidden;rounded=0;" vertex="1" parent="qYC7P0EI7lyvb2j1Zvjj-5">
          <mxGeometry x="405" y="-114" width="230" height="44" as="geometry" />
        </mxCell>
        <mxCell id="mudEd2aArbQALnRcs8rZ-1" value="&lt;font style=&quot;font-size: 14px;&quot;&gt;Club 1&lt;/font&gt;" style="rounded=1;fillColor=#FFFFFF;strokeColor=#CCCCCC;html=1;whiteSpace=wrap;fontColor=#596780;align=left;fontSize=12;spacingLeft=10;sketch=0;" vertex="1" parent="qYC7P0EI7lyvb2j1Zvjj-5">
          <mxGeometry x="614" y="-7.5" width="140" height="33" as="geometry" />
        </mxCell>
        <mxCell id="mudEd2aArbQALnRcs8rZ-2" value="" style="shape=triangle;direction=south;fillColor=#596780;strokeColor=none;html=1;sketch=0;" vertex="1" parent="mudEd2aArbQALnRcs8rZ-1">
          <mxGeometry x="1" y="0.5" width="12" height="6" relative="1" as="geometry">
            <mxPoint x="-20" y="-3" as="offset" />
          </mxGeometry>
        </mxCell>
        <mxCell id="mudEd2aArbQALnRcs8rZ-3" value="&lt;h1&gt;&lt;span style=&quot;font-weight: normal;&quot;&gt;Planned time:&lt;/span&gt;&lt;/h1&gt;" style="text;html=1;strokeColor=none;fillColor=none;spacing=5;spacingTop=-20;whiteSpace=wrap;overflow=hidden;rounded=0;" vertex="1" parent="qYC7P0EI7lyvb2j1Zvjj-5">
          <mxGeometry x="400" y="49" width="290" height="50" as="geometry" />
        </mxCell>
        <mxCell id="mudEd2aArbQALnRcs8rZ-4" value="&lt;font style=&quot;font-size: 14px;&quot;&gt;:&amp;nbsp; &amp;nbsp;&lt;/font&gt;" style="rounded=1;fillColor=#FFFFFF;strokeColor=#CCCCCC;html=1;whiteSpace=wrap;fontColor=#596780;align=center;fontSize=12;spacingLeft=10;sketch=0;" vertex="1" parent="qYC7P0EI7lyvb2j1Zvjj-5">
          <mxGeometry x="615" y="52" width="140" height="33" as="geometry" />
        </mxCell>
        <mxCell id="mudEd2aArbQALnRcs8rZ-7" value="&lt;h1&gt;&lt;span style=&quot;font-weight: normal;&quot;&gt;Max group:&lt;/span&gt;&lt;/h1&gt;" style="text;html=1;strokeColor=none;fillColor=none;spacing=5;spacingTop=-20;whiteSpace=wrap;overflow=hidden;rounded=0;" vertex="1" parent="qYC7P0EI7lyvb2j1Zvjj-5">
          <mxGeometry x="399" y="110.5" width="290" height="50" as="geometry" />
        </mxCell>
        <mxCell id="mudEd2aArbQALnRcs8rZ-14" value="&lt;h1&gt;&lt;span style=&quot;font-weight: normal;&quot;&gt;Min handicap:&lt;/span&gt;&lt;/h1&gt;" style="text;html=1;strokeColor=none;fillColor=none;spacing=5;spacingTop=-20;whiteSpace=wrap;overflow=hidden;rounded=0;" vertex="1" parent="qYC7P0EI7lyvb2j1Zvjj-5">
          <mxGeometry x="399" y="176" width="290" height="50" as="geometry" />
        </mxCell>
        <mxCell id="mudEd2aArbQALnRcs8rZ-10" value="&lt;font style=&quot;font-size: 14px;&quot;&gt;4&lt;/font&gt;" style="rounded=1;fillColor=#FFFFFF;strokeColor=#CCCCCC;html=1;whiteSpace=wrap;fontColor=#596780;align=left;fontSize=12;spacingLeft=10;sketch=0;" vertex="1" parent="qYC7P0EI7lyvb2j1Zvjj-5">
          <mxGeometry x="614" y="116" width="140" height="33" as="geometry" />
        </mxCell>
        <mxCell id="mudEd2aArbQALnRcs8rZ-11" value="" style="shape=triangle;direction=south;fillColor=#596780;strokeColor=none;html=1;sketch=0;" vertex="1" parent="mudEd2aArbQALnRcs8rZ-10">
          <mxGeometry x="1" y="0.5" width="12" height="6" relative="1" as="geometry">
            <mxPoint x="-20" y="-3" as="offset" />
          </mxGeometry>
        </mxCell>
        <mxCell id="mudEd2aArbQALnRcs8rZ-12" value="&lt;font style=&quot;font-size: 14px;&quot;&gt;(optional)&lt;/font&gt;" style="rounded=1;fillColor=#FFFFFF;strokeColor=#CCCCCC;html=1;whiteSpace=wrap;fontColor=#596780;align=left;fontSize=12;spacingLeft=10;sketch=0;" vertex="1" parent="qYC7P0EI7lyvb2j1Zvjj-5">
          <mxGeometry x="614" y="181.5" width="140" height="33" as="geometry" />
        </mxCell>
        <mxCell id="mudEd2aArbQALnRcs8rZ-13" value="" style="shape=triangle;direction=south;fillColor=#596780;strokeColor=none;html=1;sketch=0;" vertex="1" parent="mudEd2aArbQALnRcs8rZ-12">
          <mxGeometry x="1" y="0.5" width="12" height="6" relative="1" as="geometry">
            <mxPoint x="-20" y="-3" as="offset" />
          </mxGeometry>
        </mxCell>
        <mxCell id="mudEd2aArbQALnRcs8rZ-17" value="&lt;h1&gt;&lt;span style=&quot;font-weight: normal;&quot;&gt;Max handicap:&lt;/span&gt;&lt;/h1&gt;" style="text;html=1;strokeColor=none;fillColor=none;spacing=5;spacingTop=-20;whiteSpace=wrap;overflow=hidden;rounded=0;" vertex="1" parent="qYC7P0EI7lyvb2j1Zvjj-5">
          <mxGeometry x="399" y="235" width="290" height="50" as="geometry" />
        </mxCell>
        <mxCell id="mudEd2aArbQALnRcs8rZ-15" value="&lt;font style=&quot;font-size: 14px;&quot;&gt;(optional)&lt;/font&gt;" style="rounded=1;fillColor=#FFFFFF;strokeColor=#CCCCCC;html=1;whiteSpace=wrap;fontColor=#596780;align=left;fontSize=12;spacingLeft=10;sketch=0;" vertex="1" parent="qYC7P0EI7lyvb2j1Zvjj-5">
          <mxGeometry x="614" y="240.5" width="140" height="33" as="geometry" />
        </mxCell>
        <mxCell id="mudEd2aArbQALnRcs8rZ-16" value="" style="shape=triangle;direction=south;fillColor=#596780;strokeColor=none;html=1;sketch=0;" vertex="1" parent="mudEd2aArbQALnRcs8rZ-15">
          <mxGeometry x="1" y="0.5" width="12" height="6" relative="1" as="geometry">
            <mxPoint x="-20" y="-3" as="offset" />
          </mxGeometry>
        </mxCell>
        <mxCell id="5WyYVaLcLOMr_epY7U-2-1" value="&lt;font style=&quot;font-size: 17px;&quot;&gt;Club not listed? Click &lt;u&gt;here&lt;/u&gt; to add&lt;/font&gt;" style="text;html=1;strokeColor=none;fillColor=none;align=center;verticalAlign=middle;whiteSpace=wrap;rounded=0;" vertex="1" parent="qYC7P0EI7lyvb2j1Zvjj-5">
          <mxGeometry x="405" y="-44" width="285" height="30" as="geometry" />
        </mxCell>
        <mxCell id="mudEd2aArbQALnRcs8rZ-18" value="&lt;h1&gt;&lt;span style=&quot;font-weight: normal;&quot;&gt;Event name:&lt;/span&gt;&lt;/h1&gt;" style="text;html=1;strokeColor=none;fillColor=none;spacing=5;spacingTop=-20;whiteSpace=wrap;overflow=hidden;rounded=0;" vertex="1" parent="qYC7P0EI7lyvb2j1Zvjj-5">
          <mxGeometry x="399" y="296" width="290" height="50" as="geometry" />
        </mxCell>
        <mxCell id="mudEd2aArbQALnRcs8rZ-19" value="&lt;font style=&quot;font-size: 14px;&quot;&gt;(optional)&lt;/font&gt;" style="rounded=1;fillColor=#FFFFFF;strokeColor=#CCCCCC;html=1;whiteSpace=wrap;fontColor=#596780;align=left;fontSize=12;spacingLeft=10;sketch=0;" vertex="1" parent="qYC7P0EI7lyvb2j1Zvjj-5">
          <mxGeometry x="614" y="301.5" width="140" height="33" as="geometry" />
        </mxCell>
        <mxCell id="mudEd2aArbQALnRcs8rZ-23" value="&lt;h1&gt;&lt;span style=&quot;font-weight: normal;&quot;&gt;Event description:&lt;/span&gt;&lt;/h1&gt;" style="text;html=1;strokeColor=none;fillColor=none;spacing=5;spacingTop=-20;whiteSpace=wrap;overflow=hidden;rounded=0;" vertex="1" parent="qYC7P0EI7lyvb2j1Zvjj-5">
          <mxGeometry x="399" y="356" width="290" height="50" as="geometry" />
        </mxCell>
        <mxCell id="mudEd2aArbQALnRcs8rZ-21" value="&lt;font style=&quot;font-size: 14px;&quot;&gt;(optional)&lt;/font&gt;" style="rounded=1;fillColor=#FFFFFF;strokeColor=#CCCCCC;html=1;whiteSpace=wrap;fontColor=#596780;align=left;fontSize=12;spacingLeft=10;sketch=0;verticalAlign=top;" vertex="1" parent="qYC7P0EI7lyvb2j1Zvjj-5">
          <mxGeometry x="614" y="361.5" width="276" height="88.5" as="geometry" />
        </mxCell>
        <mxCell id="mudEd2aArbQALnRcs8rZ-24" value="&lt;h1&gt;&lt;span style=&quot;font-weight: normal;&quot;&gt;Tee time booked?&lt;/span&gt;&lt;/h1&gt;" style="text;html=1;strokeColor=none;fillColor=none;spacing=5;spacingTop=-20;whiteSpace=wrap;overflow=hidden;rounded=0;" vertex="1" parent="qYC7P0EI7lyvb2j1Zvjj-5">
          <mxGeometry x="399" y="486" width="290" height="50" as="geometry" />
        </mxCell>
        <mxCell id="mudEd2aArbQALnRcs8rZ-28" value="" style="rounded=1;fillColor=#F0F2F5;strokeColor=#D8DCE3;align=left;verticalAlign=middle;fontStyle=0;fontSize=12;labelPosition=right;verticalLabelPosition=middle;spacingLeft=10;html=1;shadow=0;dashed=0;arcSize=1;aspect=fixed;strokeWidth=3;" vertex="1" parent="qYC7P0EI7lyvb2j1Zvjj-5">
          <mxGeometry x="641" y="497" width="21.11" height="19" as="geometry" />
        </mxCell>
        <mxCell id="mudEd2aArbQALnRcs8rZ-30" value="&lt;font style=&quot;font-size: 28px;&quot;&gt;Create&lt;/font&gt;" style="rounded=1;whiteSpace=wrap;html=1;verticalAlign=bottom;" vertex="1" parent="qYC7P0EI7lyvb2j1Zvjj-5">
          <mxGeometry x="372" y="596" width="297" height="40" as="geometry" />
        </mxCell>
        <mxCell id="677b7b8949515195-10" value="" style="whiteSpace=wrap;html=1;rounded=0;shadow=0;labelBackgroundColor=none;strokeWidth=1;fillColor=none;fontFamily=Verdana;fontSize=12;align=center;comic=1;" vertex="1" parent="1">
          <mxGeometry x="30" y="40" width="1040" height="50" as="geometry" />
        </mxCell>
        <mxCell id="677b7b8949515195-12" value="&lt;font style=&quot;font-size: 16px;&quot;&gt;&lt;b style=&quot;border-color: var(--border-color);&quot;&gt;My game chats | Find games | Create a game |&amp;nbsp;&lt;/b&gt;&lt;b&gt;Update handicap | Manage subscriptions | Sign out&lt;/b&gt;&lt;/font&gt;" style="text;html=1;points=[];align=left;verticalAlign=top;spacingTop=-4;fontSize=14;fontFamily=Verdana" vertex="1" parent="1">
          <mxGeometry x="174" y="55" width="170" height="20" as="geometry" />
        </mxCell>
        <mxCell id="8phkjEfu20HQz3NuUWRH-20" value="&lt;font face=&quot;Comic Sans MS&quot;&gt;&lt;font style=&quot;font-size: 22px;&quot;&gt;&lt;br&gt;&lt;/font&gt;&lt;/font&gt;" style="text;html=1;points=[];align=left;verticalAlign=top;spacingTop=-4;fontSize=19;fontFamily=Verdana" vertex="1" parent="1">
          <mxGeometry x="701" y="520" width="62.12" height="33" as="geometry" />
        </mxCell>
        <mxCell id="IgBskjyFUGVjYucHrxcE-1" value="LOGO" style="whiteSpace=wrap;html=1;rounded=0;shadow=0;labelBackgroundColor=none;strokeWidth=1;fontFamily=Verdana;fontSize=28;align=center;comic=1;" vertex="1" parent="1">
          <mxGeometry x="38" y="47" width="112" height="35" as="geometry" />
        </mxCell>
        <mxCell id="qYC7P0EI7lyvb2j1Zvjj-28" value="&lt;div style=&quot;text-align: justify&quot;&gt;&lt;br&gt;&lt;/div&gt;" style="whiteSpace=wrap;html=1;rounded=0;shadow=0;labelBackgroundColor=none;strokeWidth=1;fontFamily=Verdana;fontSize=12;align=center;verticalAlign=top;spacing=10;comic=1;" vertex="1" parent="1">
          <mxGeometry x="30" y="916" width="1040" height="160" as="geometry" />
        </mxCell>
        <mxCell id="8phkjEfu20HQz3NuUWRH-15" value="&lt;font face=&quot;Arial&quot; style=&quot;font-size: 22px;&quot;&gt;&lt;u style=&quot;&quot;&gt;About us&lt;/u&gt;&lt;/font&gt;" style="text;html=1;points=[];align=center;verticalAlign=top;spacingTop=-4;fontSize=19;fontFamily=Verdana" vertex="1" parent="1">
          <mxGeometry x="100" y="938" width="170" height="20" as="geometry" />
        </mxCell>
        <mxCell id="8phkjEfu20HQz3NuUWRH-14" value="&lt;font face=&quot;Arial&quot; style=&quot;font-size: 22px;&quot;&gt;&lt;u style=&quot;&quot;&gt;Site map&lt;/u&gt;&lt;/font&gt;" style="text;html=1;points=[];align=center;verticalAlign=top;spacingTop=-4;fontSize=19;fontFamily=Verdana" vertex="1" parent="1">
          <mxGeometry x="100" y="976" width="170" height="20" as="geometry" />
        </mxCell>
        <mxCell id="qYC7P0EI7lyvb2j1Zvjj-29" value="&lt;font face=&quot;Arial&quot;&gt;© 2023 &amp;lt;website&amp;gt;&lt;/font&gt;" style="text;html=1;points=[];align=center;verticalAlign=top;spacingTop=-4;fontSize=19;fontFamily=Verdana" vertex="1" parent="1">
          <mxGeometry x="120" y="1037" width="170" height="20" as="geometry" />
        </mxCell>
      </root>
    </mxGraphModel>
  </diagram>
</mxfile>
